PathFileType	4	(X/Y/Z)	S01_0017_Gait_markers.trc
DataRate	CameraRate	NumFrames	NumMarkers	Units	OrigDataRate	OrigDataStartFrame	OrigNumFrames
250.000000	250.000000	4	54	mm	250.000000	91	364
Frame#	Time	HEAD_ANT			R_HEAD			L_HEAD			C7			R_BACK			L_BACK			STERNUM			R_ACROMION			R_HUM_PROX			R_HUM_ANT			R_HUM_POST			R_ELBOW_LAT			R_ELBOW_MED			R_FOREARM			R_WIRST_LAT			R_WRITS_MED			R_HAND			L_ACROMION			L_HUM_PROX			L_HUM_ANT			L_HUM_POST			L_ELBOW_LAT			L_ELBOW_MED			L_FOREARM			L_WRIST_LAT			L_WIRST_MED			L_HAND			R_ILIAC			SACRUM			L_ILIAC			R_GTROCH			R_THIGH__1			R_THIGH_2			R_THIGH_3			R_THIGH_4			R_SHANK_1			R_SHANK_2			R_SHANK_3			R_SHANK_4			R_HEEL			R_FOOT_LAT			R_FOOT_MED			L_GTROCH			L_THIGH_1			L_THIGH_2			L_THIGH_3			L_THIGH_4			L_SHANK_1			L_SHANK_2			L_SHANK_3			L_SHANK_4			L_HEEL			L_FOOT_LAT			L_FOOT_MED			
		X1	Y1	Z1	X2	Y2	Z2	X3	Y3	Z3	X4	Y4	Z4	X5	Y5	Z5	X6	Y6	Z6	X7	Y7	Z7	X8	Y8	Z8	X9	Y9	Z9	X10	Y10	Z10	X11	Y11	Z11	X12	Y12	Z12	X13	Y13	Z13	X14	Y14	Z14	X15	Y15	Z15	X16	Y16	Z16	X17	Y17	Z17	X18	Y18	Z18	X19	Y19	Z19	X20	Y20	Z20	X21	Y21	Z21	X22	Y22	Z22	X23	Y23	Z23	X24	Y24	Z24	X25	Y25	Z25	X26	Y26	Z26	X27	Y27	Z27	X28	Y28	Z28	X29	Y29	Z29	X30	Y30	Z30	X31	Y31	Z31	X32	Y32	Z32	X33	Y33	Z33	X34	Y34	Z34	X35	Y35	Z35	X36	Y36	Z36	X37	Y37	Z37	X38	Y38	Z38	X39	Y39	Z39	X40	Y40	Z40	X41	Y41	Z41	X42	Y42	Z42	X43	Y43	Z43	X44	Y44	Z44	X45	Y45	Z45	X46	Y46	Z46	X47	Y47	Z47	X48	Y48	Z48	X49	Y49	Z49	X50	Y50	Z50	X51	Y51	Z51	X52	Y52	Z52	X53	Y53	Z53	X54	Y54	Z54	

92	0.364	560.579833984375	1741.283081054688	-321.4631958007809	503.1800231933594	1688.423706054688	-244.4824523925778	500.4274597167969	1695.344848632812	-392.0576171874996	365.5787353515625	1519.150634765625	-327.6065063476559	297.5779724121094	1319.831665039062	-265.7480773925778	298.3994140625	1324.939697265625	-402.646057128906	544.453369140625	1360.244506835938	-329.2971191406247	439.2274475097656	1467.243774414062	-156.05110168457	402.1693420410156	1304.21923828125	-71.23015594482393	463.9530029296875	1218.887573242188	-70.33708953857395	342.1212463378906	1219.723999023438	-61.87849807739231	388.5292358398438	1114.338500976562	-59.48267745971655	368.5302734375	1111.9169921875	-139.2780761718747	493.1190185546875	932.2805786132812	-61.49462127685526	532.9558715820312	868.0442504882812	-104.2692871093748	465.3692321777344	843.4867553710938	-66.30352783203107	536.876220703125	780.12158203125	-49.08424377441389	446.6692504882812	1482.861694335938	-495.0039367675778	425.9803771972656	1317.733764648438	-593.5157470703122	486.7981262207031	1236.464477539063	-592.7198486328123	366.9876098632812	1241.335327148438	-620.7817382812498	424.2479248046875	1135.987060546875	-628.6678466796873	369.6020812988281	1130.434448242188	-573.3359374999998	520.05419921875	955.5969238281251	-619.355041503906	541.7182006835938	889.3037719726564	-568.543029785156	502.4042358398438	875.7382812500001	-636.1021728515623	573.967529296875	812.7551879882814	-620.5659179687498	445.5284729003906	1072.280883789062	-165.6327667236326	312.577392578125	1044.076293945312	-331.2820129394529	427.8119812011719	1063.311767578125	-510.0443420410154	403.2425842285156	922.0791015625	-150.8978118896482	473.6169128417969	643.6273803710938	-187.0758056640624	527.790283203125	665.9301147460938	-185.254913330078	541.9843139648438	567.4755859375	-226.7967224121093	478.3508605957031	564.8563842773438	-212.6328887939452	462.1664428710938	342.1723632812501	-217.7755432128905	514.1192626953125	318.3562011718751	-238.0849456787109	501.9838562011719	235.5171203613282	-259.3700866699218	440.0925598144531	245.5964813232422	-243.2979736328124	375.6064453125	44.99979782104499	-333.5781555175781	536.9434814453125	19.91937446594244	-245.9750366210938	594.3125610351562	29.35170364379891	-349.8873291015625	396.6982727050781	949.4929199218751	-513.709777832031	529.9542236328125	672.3361206054689	-530.2364501953124	472.6658630371094	686.4993896484376	-537.0457763671874	473.9465637207031	580.8992309570314	-520.2321777343749	537.5535888671875	590.9805908203126	-519.8114013671874	372.4215393066406	368.8301391601564	-516.2310791015624	319.6171264648438	396.7171020507814	-512.6120605468749	255.1367797851562	340.1017456054689	-494.4661560058593	302.4898376464844	296.253631591797	-494.1978454589843	106.122917175293	252.0463409423829	-415.2469787597656	158.7683715820312	89.16876983642589	-493.4297180175781	202.8057708740234	68.61679840087899	-404.9301452636719	
93	0.368	565.6998291015625	1742.098999023438	-321.4794921874996	508.2868041992188	1689.139770507812	-244.6028900146481	505.3785095214844	1696.159301757812	-392.1512756347652	370.4623718261719	1520.129272460938	-327.8183288574215	302.856689453125	1320.648071289062	-265.2975158691403	303.5875854492188	1325.709838867188	-402.5966796874997	549.4680786132812	1360.997192382812	-329.3361206054685	444.2735595703125	1468.263793945312	-156.1018676757809	407.6852722167969	1305.16748046875	-71.13197326660128	469.5229187011719	1220.02685546875	-70.17146301269504	347.6978454589844	1220.593139648438	-61.57916641235325	394.2690734863281	1115.163330078125	-59.24308013915991	373.6615295410156	1113.1083984375	-139.7943878173826	499.7833557128906	933.5859985351562	-61.64578628540018	539.8896484375	869.7610473632812	-104.4239578247068	472.4447631835938	844.7926025390625	-66.32545471191388	544.3600463867188	781.6288452148438	-49.27285385131819	451.4890747070312	1483.880004882812	-495.0521545410153	430.3209533691406	1318.471923828125	-593.4690551757809	491.3185424804688	1237.19970703125	-593.356994628906	371.1593322753906	1242.123779296875	-620.3226928710935	428.2260131835938	1136.802978515625	-628.6640624999998	374.0935363769531	1131.280639648438	-572.9418945312498	524.198486328125	956.2117309570314	-619.6676025390623	546.1220092773438	889.9556274414064	-568.9265136718748	506.7630920410156	876.5145874023439	-636.3126220703123	578.1170043945312	813.4395141601564	-621.2848510742185	451.0168762207031	1073.561645507812	-165.7361145019529	317.6010131835938	1044.8974609375	-331.1549072265623	433.5913696289062	1064.3935546875	-509.5964355468748	407.7279052734375	922.6781005859375	-150.8472290039061	475.9054565429688	643.947509765625	-186.9990997314452	530.3795166015625	665.8296508789062	-184.7684173583983	543.693115234375	567.4420166015625	-226.6481475830077	479.9185791015625	565.1366577148438	-212.5470581054686	462.5455627441406	342.3383483886719	-217.8057098388671	514.53076171875	318.3569335937501	-237.9397888183593	502.2368469238281	235.5981140136719	-259.1906738281249	440.2522888183594	245.841781616211	-243.3834991455078	375.722900390625	45.24325942993171	-333.804443359375	536.9266967773438	19.92249679565435	-245.9700164794922	594.3811645507812	29.35729408264168	-349.7955627441406	402.1435852050781	950.5828857421876	-513.4949951171873	537.89794921875	674.4323120117189	-530.1153564453124	480.6627502441406	687.7700805664064	-537.1716308593749	482.5921630859375	582.2239379882814	-520.1032714843749	546.2411499023438	592.9373168945314	-519.3207397460936	382.7904968261719	369.2140197753907	-516.3737182617186	329.8095397949219	396.4907531738282	-512.3278808593749	266.1524047851562	339.1241455078126	-494.2309265136718	313.8518981933594	295.8142089843751	-494.4635925292968	117.3096923828125	249.0233001708985	-415.8087158203124	173.9815368652344	87.81484222412121	-494.8138732910156	218.4760131835938	67.58008575439462	-406.4232177734375	
94	0.372	570.844482421875	1742.773803710938	-321.7214355468746	513.3303833007812	1689.971557617188	-244.5795440673824	510.4122009277344	1696.945434570312	-392.1854858398434	375.5579223632812	1520.772338867188	-327.8168334960934	307.8166809082031	1321.685913085938	-265.1949768066403	308.502685546875	1326.2880859375	-402.6655273437497	554.5672607421875	1361.9384765625	-329.3201599121091	449.3470764160156	1469.221801757812	-156.2180480957028	412.8773193359375	1305.906127929688	-70.86128234863253	474.9167785644531	1220.871337890625	-70.23561096191379	353.3592834472656	1221.470092773438	-61.66847991943332	399.8203430175781	1116.545166015625	-59.15103149414038	379.3740844726562	1113.976806640625	-139.794006347656	506.4565734863281	934.968505859375	-61.74401473999003	546.7060546875	871.2225952148438	-104.7448730468748	479.56787109375	846.10205078125	-66.4825897216795	551.7919921875	783.1799926757812	-49.6155700683592	456.3745422363281	1484.676391601562	-495.0845031738278	434.8206176757812	1319.227783203125	-593.5477294921872	495.7809448242188	1238.074829101563	-593.7590332031248	375.3724975585938	1242.769409179688	-619.970764160156	432.4259033203125	1137.491333007813	-628.6474609374998	378.6907653808594	1131.949462890625	-572.643371582031	528.4072875976562	956.8187255859376	-620.0731811523435	553.3978271484375	890.9504394531251	-570.135803222656	511.7908020019531	877.0403442382814	-636.878234863281	582.2252807617188	814.0601196289064	-622.0253295898435	455.6490173339844	1074.426391601562	-166.0808868408201	322.6662292480469	1045.791259765625	-330.7748718261716	439.1642456054688	1065.657958984375	-509.1795959472654	412.1533813476562	923.2982177734375	-150.6696014404295	478.1886291503906	644.3396606445312	-186.9825134277342	532.797119140625	665.9039306640625	-184.9447326660155	545.3515014648438	567.2105712890625	-226.4481964111327	481.5806579589844	565.4507446289062	-212.4464416503905	462.9396057128906	342.5993957519532	-217.8161468505859	514.9805297851562	318.4428710937501	-237.7385253906249	502.4002685546875	235.6867218017579	-259.2095336914062	440.5178833007812	246.1088256835938	-243.4441680908203	375.8257751464844	45.52614593505866	-333.9818115234375	536.9138793945312	19.88009834289556	-245.9426727294922	594.487548828125	29.37629508972176	-349.728515625	407.4248657226562	951.6305541992189	-513.5433349609373	545.7162475585938	676.2971801757814	-529.7147827148436	488.3451843261719	689.1361694335939	-537.0985717773436	491.532470703125	583.9411621093751	-520.0870971679686	554.8788452148438	594.7752685546876	-518.6018066406249	393.5640258789062	369.5135498046876	-515.8932495117186	340.0581665039062	396.2275390625001	-512.0906982421874	276.8096618652344	338.001922607422	-494.5169982910156	325.4037475585938	295.3168945312501	-494.3470153808593	128.7322540283203	245.4940338134766	-416.0725402832031	189.4893646240234	86.36911010742199	-496.2876892089844	234.4923706054688	66.16349029541024	-408.1393127441406	
95	0.376	575.9239501953125	1743.494140625	-321.7631225585934	518.3131103515625	1690.73095703125	-244.9110565185543	515.342529296875	1697.674560546875	-392.383148193359	380.3831481933594	1521.387573242188	-327.7274169921872	311.770263671875	1322.405151367188	-265.2666015624997	313.5381774902344	1327.13330078125	-402.5304260253903	559.6107788085938	1362.884399414062	-329.9375305175778	454.5616760253906	1470.102783203125	-156.2901458740231	418.464599609375	1307.060546875	-70.84631347656222	480.7079772949219	1222.0341796875	-70.27194976806614	358.8030700683594	1222.306518554688	-61.302249908447	407.6027526855469	1117.1376953125	-58.89327621459936	383.0123596191406	1115.489013671875	-138.2256164550779	513.0748901367188	936.2646484375	-61.92036819457987	553.6362915039062	872.8007202148438	-104.8188552856443	486.6101379394531	847.32958984375	-66.5394973754881	559.3449096679688	784.7589721679688	-49.85308456420881	461.0685729980469	1485.338012695312	-495.1639709472653	439.2077331542969	1319.9345703125	-593.7651367187497	499.8755187988281	1238.826904296875	-595.4462890624998	379.7325439453125	1243.227905273438	-619.2445678710935	437.0572509765625	1138.179077148438	-628.532531738281	383.2571716308594	1132.610595703125	-572.2963867187498	532.7948608398438	957.6596679687501	-620.4815673828123	557.96875	891.2478637695314	-570.323303222656	515.9133911132812	877.7218627929689	-637.0955810546873	586.3756713867188	814.7421875000001	-622.789855957031	460.9918212890625	1075.181762695312	-165.2882385253904	327.6050720214844	1046.56494140625	-330.3497619628904	444.5868225097656	1066.769287109375	-508.7311706542966	416.5980529785156	923.9324340820312	-150.4605255126951	480.4695129394531	644.638916015625	-187.0806579589842	535.5048217773438	665.7374877929688	-184.2679901123045	547.2329711914062	567.2102661132812	-226.0918121337889	483.2994079589844	565.872802734375	-212.2614593505858	463.4369506835938	342.8205871582032	-217.8065032958984	515.4920043945312	318.5384216308594	-237.5442352294921	502.6734313964844	235.7818298339844	-259.0520935058593	440.8865661621094	246.5183715820313	-243.4391937255859	375.9784545898438	45.88575744628913	-334.1180419921875	536.9370727539062	19.86872673034673	-245.9365539550781	594.5827026367188	29.40596389770516	-349.6537780761719	412.6354370117188	952.5444946289064	-513.407043457031	553.5875854492188	678.0371093750001	-529.4136962890624	496.0420837402344	690.6391601562501	-537.0425415039061	500.0801696777344	585.1795043945314	-520.0863647460936	563.3416137695312	596.7345581054689	-518.3113403320311	403.8873291015625	369.7326049804689	-516.0032348632811	350.2177429199219	395.6981506347657	-512.1803588867186	287.8076171875	336.6185302734376	-494.6733093261718	336.8502197265625	294.6039123535157	-494.6582336425781	140.3274841308594	241.6383514404298	-416.2423095703124	205.1111450195312	84.76125335693371	-497.593017578125	250.3932495117188	65.0341339111329	-409.521728515625	
